<svg xmlns="http://www.w3.org/2000/svg" xmlns:v="https://svgstorm.com"
viewBox = "0 0 966 644"
width="966"
height="644">
<g fill="#ffffff00" fill-opacity="1.00" stroke="None"><path d="
M 0.00 644.00 
L 966.00 644.00
L 966.00 0.00
L 0.00 0.00
L 0.00 644.00 Z"/>
</g>
<g fill="#000000" fill-opacity="1.00" stroke="None"><path d="
M 477.00 202.00 
C 460.83 198.32 444.90 197.22 428.00 196.00 C 411.10 194.77 393.26 194.36 376.00 194.00 C 358.74 193.64 338.10 194.13 321.02 193.98 C 303.95 193.82 286.41 193.90 269.00 194.00 C 251.59 194.10 230.76 193.59 214.00 194.00 C 197.24 194.41 179.51 191.28 170.00 204.00
C 190.16 214.57 213.58 210.34 237.00 211.00 C 260.42 211.66 286.35 210.50 310.00 211.00
C 308.01 237.25 309.42 264.35 309.00 291.00
C 232.45 292.27 153.72 290.56 79.00 298.00
C 84.24 302.42 94.28 299.86 102.00 301.00 C 109.72 302.14 117.83 301.75 126.00 302.00 C 134.17 302.25 143.84 301.22 151.98 302.02 C 160.11 302.83 167.52 303.28 176.00 303.00 C 184.48 302.72 193.48 303.18 202.00 303.00 C 210.52 302.82 218.44 303.20 227.00 303.00 C 235.56 302.80 244.36 303.35 253.00 303.00 C 261.64 302.65 268.29 304.09 277.00 304.00 C 285.71 303.91 293.95 304.19 303.00 304.00 C 312.05 303.82 308.87 315.29 309.00 323.00 C 309.13 330.71 309.26 340.92 309.00 349.00 C 308.74 357.08 309.45 365.08 310.00 373.00 C 310.55 380.92 310.05 390.26 311.00 398.00 C 311.95 405.74 310.77 414.63 312.00 422.00 C 313.23 429.36 314.78 437.88 315.00 445.00 C 315.22 452.12 317.93 464.37 320.00 455.00 C 322.08 445.63 321.64 440.57 323.00 432.00 C 324.36 423.43 325.03 417.55 325.00 409.00 C 324.97 400.45 325.91 392.44 326.00 384.00 C 326.09 375.56 326.75 368.45 327.00 360.00 C 327.25 351.55 326.43 343.63 327.00 335.00 C 327.57 326.37 325.79 317.88 327.01 309.01 C 328.22 300.14 338.35 305.36 347.00 304.00 C 355.64 302.64 354.33 315.46 354.00 323.00 C 353.67 330.54 353.89 340.08 354.00 348.00 C 354.11 355.92 355.39 364.82 355.00 373.00 C 354.61 381.18 356.92 388.66 356.00 397.00 C 355.08 405.34 357.98 412.90 358.00 421.00 C 358.02 429.10 360.53 435.69 360.00 444.00 C 359.47 452.31 363.36 461.96 365.67 451.67 C 367.98 441.39 366.19 437.27 367.22 428.22 C 368.26 419.18 369.22 413.51 370.00 405.00 C 370.78 396.49 369.33 388.76 370.67 380.67 C 372.01 372.58 370.28 363.56 371.67 355.67 C 373.06 347.78 371.64 338.89 372.00 331.00 C 372.36 323.11 369.42 312.43 378.98 311.98 C 388.53 311.52 392.90 309.65 402.00 312.00 C 411.10 314.36 412.20 313.36 421.25 318.75 C 430.31 324.13 441.33 334.40 446.23 343.77 C 451.12 353.14 451.43 354.02 453.67 362.33 C 455.91 370.64 455.12 377.70 453.99 384.99 C 452.86 392.28 450.26 398.13 446.92 403.92 C 443.58 409.72 441.46 414.35 436.75 418.75 C 432.04 423.14 427.28 426.51 421.69 429.69 C 416.11 432.88 410.52 434.83 404.22 437.22 C 397.93 439.61 390.45 442.49 383.00 442.00 C 375.55 441.51 363.58 443.51 373.78 446.22 C 383.98 448.93 387.40 449.09 397.00 449.00 C 406.60 448.91 410.16 448.83 418.93 445.93 C 427.70 443.02 427.43 443.03 436.77 437.77 C 446.11 432.51 456.99 421.56 462.23 412.23 C 467.47 402.90 466.64 402.82 469.67 394.67 C 472.70 386.53 471.62 379.05 472.00 371.00 C 472.38 362.95 469.97 356.70 467.98 350.02 C 465.98 343.34 463.17 337.75 459.77 332.23 C 456.37 326.71 453.26 322.56 448.92 318.08 C 444.57 313.61 440.84 309.95 436.00 306.00
C 445.15 303.83 454.87 305.45 465.00 305.00 C 475.13 304.55 483.31 305.46 494.00 305.00 C 504.69 304.54 500.32 318.46 501.00 327.00 C 501.68 335.54 500.13 347.22 501.00 356.00 C 501.87 364.78 501.51 375.22 502.00 384.00 C 502.49 392.77 503.15 402.97 503.67 411.33 C 504.19 419.69 506.15 430.22 506.07 437.93 C 506.00 445.63 509.72 460.77 512.00 451.00 C 514.29 441.24 513.30 434.33 515.00 425.00 C 516.70 415.67 516.54 407.54 517.00 398.00 C 517.46 388.46 517.73 379.73 518.00 370.00 C 518.27 360.27 519.62 351.21 519.00 341.00 C 518.38 330.79 519.57 322.71 519.00 312.00 C 518.43 301.30 532.11 305.55 541.00 305.00 C 549.89 304.45 560.47 305.54 570.00 305.00 C 579.53 304.46 588.93 305.90 599.00 305.00 C 609.08 304.10 617.11 306.85 628.00 305.00 C 638.89 303.15 644.97 307.85 643.00 319.00 C 641.03 330.15 643.89 337.75 643.00 348.00 C 642.11 358.25 643.41 367.25 643.00 377.00 C 642.59 386.75 643.20 396.71 643.00 406.00 C 642.80 415.29 642.68 425.70 644.00 434.00 C 645.32 442.30 644.06 451.51 653.00 454.00
C 657.97 444.22 659.45 435.55 660.00 424.00 C 660.55 412.45 659.92 399.07 660.00 387.00 C 660.08 374.93 660.33 362.43 660.00 350.00 C 659.67 337.57 661.01 326.99 660.00 314.00 C 658.99 301.01 677.14 304.33 688.00 305.00 C 698.85 305.67 690.66 323.49 691.00 333.00 C 691.34 342.51 689.07 357.77 689.00 368.00 C 688.93 378.22 689.81 391.11 689.00 402.00 C 688.19 412.89 690.30 427.96 690.01 437.99 C 689.72 448.02 697.06 462.73 702.22 451.22 C 707.39 439.72 705.52 430.05 706.00 418.00 C 706.48 405.95 706.37 393.88 705.93 382.07 C 705.49 370.26 705.79 360.23 705.00 348.00 C 704.21 335.77 704.61 326.30 702.00 314.00 C 699.39 301.71 717.53 305.78 725.98 309.03 C 734.42 312.27 740.12 317.37 745.69 325.31 C 751.27 333.24 751.93 345.99 749.32 355.32 C 746.71 364.66 740.32 370.08 733.25 376.25 C 726.18 382.42 717.60 385.45 711.00 390.00
C 718.90 393.46 731.47 391.75 739.31 388.31 C 747.14 384.86 751.89 380.31 757.75 373.75 C 763.60 367.18 766.65 358.88 768.00 350.00 C 769.35 341.12 766.67 329.86 762.92 322.08 C 759.18 314.29 755.03 308.80 748.25 302.75 C 741.46 296.70 735.82 294.00 727.02 290.98 C 718.23 287.95 705.69 288.81 696.00 288.00 C 686.31 287.19 672.07 290.38 663.01 287.99 C 653.95 285.60 660.42 266.79 659.00 258.00 C 657.58 249.21 659.79 235.33 658.00 226.00 C 656.21 216.67 658.02 205.12 655.00 196.00
C 647.67 206.55 647.85 218.85 646.00 233.00 C 644.15 247.15 643.61 261.22 643.93 276.93 C 644.24 292.63 622.87 288.59 609.00 288.00 C 595.13 287.41 579.68 287.70 565.00 288.00 C 550.32 288.30 533.84 287.78 519.00 288.00
C 519.09 278.95 518.88 268.95 519.00 260.00 C 519.12 251.05 518.77 241.69 519.00 233.00 C 519.23 224.31 518.52 213.15 519.00 205.00 C 519.48 196.85 511.48 191.17 505.08 196.08 C 498.69 201.00 501.13 210.63 501.00 219.00 C 500.87 227.37 500.66 237.99 501.00 247.00 C 501.34 256.01 499.90 264.39 501.00 274.00 C 502.10 283.61 500.84 291.75 490.00 290.00 C 479.16 288.25 471.91 290.76 462.00 290.00 C 452.09 289.24 444.40 290.20 435.00 290.00 C 425.60 289.80 417.14 289.77 408.00 290.00 C 398.86 290.23 388.93 289.23 380.02 290.02 C 371.12 290.82 363.09 291.31 354.00 291.00 C 344.91 290.69 336.07 291.24 327.00 291.00
C 326.58 264.36 327.99 237.25 326.00 211.00
C 343.23 210.34 363.02 211.88 380.00 211.00 C 396.98 210.12 414.68 210.55 431.00 209.00 C 447.32 207.45 463.42 206.95 477.00 202.00 Z"/>
</g>
</svg>